<?xml version="1.0" encoding="utf-8"?>
<!-- Generator: Adobe Illustrator 27.4.0, SVG Export Plug-In . SVG Version: 6.00 Build 0)  -->
<svg version="1.1" id="Capa_1" xmlns="http://www.w3.org/2000/svg" xmlns:xlink="http://www.w3.org/1999/xlink" x="0px" y="0px"
	 viewBox="0 0 800 761.6" style="enable-background:new 0 0 800 761.6;" xml:space="preserve">
<style type="text/css">
	.st0{fill:#FFFFFF;}
	.st1{fill:#005AA8;}
</style>
<g>
	<g>
		<path class="st0" d="M747.49,384.42c35.57-3.71,51.54-59.31,46.65-115.54c-3.44-39.57-20.62-75.37-53.31-85.4
			c13.79-19.59,11-51.94-2.19-83.79c2.7,0.47,5.47,0.73,8.3,0.73c26.5,0,47.98-21.48,47.98-47.98c0-26.5-21.48-47.98-47.98-47.98
			c-22.48,0-41.34,15.46-46.54,36.32c-25.43-26.51-57.77-42.85-89.98-33.81c-20.69,20.31-174.45,174.95-174.45,174.95
			s-13.89-20.3-55.55-25.94c-26.04-28.73-86.43-34.98-127.37-6.79c-41.41-14.13-102.24-5.28-125.24,65.82
			c-47.82-4.97-117.59,53.46-87.91,150.77c-40.61,17.13-65.08,150.94,39.05,192.59c-11.98,27.6,2.6,151,151.52,134.17
			c13.54,34.53,134.85,116.28,234.82,17.34c45.82,26.04,193.69,16.67,204.11-151.52C740.82,583.89,806.84,429.77,747.49,384.42z"/>
	</g>
	<g>
		<path class="st1" d="M64.46,360.97l0.08,0.01l120.94,15.21c3.36-19.95,10.66-39.17,21.36-55.71l-71.57-70.18
			c-0.6-0.58-1.12-1.21-1.57-1.88c-3.94-5.76-10.98-8.58-17.93-8.01c-51.4,4.22-80.49,58.15-63.02,110.92
			C54.47,356.53,59.04,360.26,64.46,360.97z"/>
		<path class="st1" d="M267.59,176.08l16.28,97.93c11.91-1.39,24.08-1.17,35.8,0.56l34.88-84.12c0.15-0.35,0.31-0.69,0.48-1.02
			c2.54-4.85,2.15-10.78-1.66-14.71c-18.19-18.8-55.5-24.91-81.82-10.45c-3.76,2.07-5.29,6.51-4.2,10.66
			C267.44,175.31,267.53,175.69,267.59,176.08z"/>
		<path class="st1" d="M151.86,231.49c0.33,0.26,0.64,0.54,0.95,0.84l69.8,68.44c10.09-9.76,22.81-16.87,36.73-21.43l-16.47-99.14
			c-0.06-0.37-0.11-0.75-0.14-1.12c-0.6-7.82-6.52-14.36-14.15-16.13c-32.38-7.53-73.41,12.53-82.72,52.55
			C144.44,221.55,147.01,227.61,151.86,231.49z"/>
		<path class="st1" d="M388.68,317.22c0.04,0.08,0.08,0.17,0.12,0.26c4.15,3.95,8.04,8.17,11.58,12.69
			c3.8-7.2,9.12-13.64,15.83-19.11c5.69-4.64,12.51-8.75,20.26-12.22c4.51-2.02,9.37-3.83,14.36-5.52
			c-7.78-19.14-17.57-36.39-25.96-50.46c-4.5-7.54-4.01-11.39-0.99-14.44c1.81-2.17,3.28-3.96,4.61-5.58
			c-5.99-22.9-27.59-33.5-49.86-27.17c-0.05,1.5-0.34,3.01-0.96,4.47l-33.43,80.63C363.89,288.02,380.22,300.29,388.68,317.22z"/>
		<path class="st1" d="M646.86,553.84c-1.98-0.14-3.96-0.76-5.77-1.89l-51.98-32.67c-16.22-0.79-29.71-5.32-40.09-13.57
			c-7.68-6.1-13.29-13.67-16.69-22.11c-2.44-6.06-3.78-12.55-3.78-19.34c0-3.9,0.47-7.63,1.16-11.29c1.29-6.84,3.65-13.3,7.3-19.21
			c3.56-5.73,8.79-12.51,16.48-21.32l10.59-12.34l-9.78-11.48l-0.33,0.6h-17.8c-3.88,0-7.94,0.19-12.07,0.57
			c-4.06,0.37-8.07,0.93-11.91,1.66c-0.01,0-0.02,0-0.02,0.01v50.31v29.18v37.36l-21.36,6.43c-3.83,1.16-8.69,2.13-15.29,3.05
			c-6.3,0.88-12.84,1.32-19.46,1.32c-6.71,0-12.98-0.49-18.64-1.46c-8.73-1.5-16.48-4.77-23.06-9.7c-0.72-0.54-1.34-1.17-2.02-1.75
			c-1.28,0.87-2.49,1.8-3.8,2.63c-0.06,0.04-0.08,0.11-0.06,0.17l58.63,169.95c1.93,5.67,6.67,9.94,12.5,11.25
			C577.76,712.4,640.72,632.71,647,554C647.01,553.92,646.95,553.84,646.86,553.84z"/>
		<path class="st1" d="M92.55,533.5l105.6-70.44c-10.07-18.95-14.78-40.33-14.78-61.81L61.22,385.89c-0.37-0.05-0.74-0.12-1.1-0.2
			c-6.98-1.58-14.32,0.57-18.6,6.32C11.32,432.6,21.69,505.12,72.99,534.3c6.1,3.47,13.64,3.15,19.47-0.74L92.55,533.5z"/>
		<path class="st1" d="M272.85,521.65c-26.27-7.68-46.24-21.07-60.58-37.82l-105.89,70.63c-0.34,0.23-0.69,0.43-1.04,0.62
			c-7.22,3.84-12.45,10.69-13,18.86c-4.29,63.97,58.26,113.7,125.02,100.9c6.01-1.15,10.93-5.5,12.95-11.29l0.03-0.08l48.56-140.15
			C276.89,522.79,274.89,522.24,272.85,521.65z"/>
		<path class="st1" d="M443.43,687.14l-57.98-166.53c-22.9,9.05-50.04,12.6-81.79,7.87l-49.67,143.37l-0.15,0.43
			c-2.59,7.24-1.4,15.38,3.43,21.36c42.74,52.86,141.71,53.66,184.59,8.84c3.64-3.81,4.17-9.45,2.01-14.26
			C443.7,687.87,443.55,687.51,443.43,687.14z"/>
		<path class="st1" d="M464.73,266.78c0,0,121.76-46.47,222.66-81.81c57.03-19.97,37.67-63.75,6.43-113.85
			C671.47,35.28,626.34,16.19,597,49.17c-17.38,19.54-98.17,98.12-161.6,165.25c3.89,4.56,13.69,19.56,19.14,30.2
			C461.12,257.49,464.73,266.78,464.73,266.78z"/>
		<path class="st1" d="M693.82,205.72c-46.01,15.02-222.64,76.35-222.64,76.35c0.88,1.72,1.71,3.44,2.49,5.17
			c2.34-0.46,4.67-0.96,7.04-1.33c8.12-1.26,16.37-1.9,24.53-1.9c16.92,0,31.27,3.82,42.64,11.34c1.59,1.06,3.09,2.2,4.53,3.4
			c10.15-8.08,22.46-12.33,36.02-12.33c18.79,0,30.74,7.12,37.44,13.1c4.96,4.41,10.03,9.94,15.45,16.85l22.05-29.94h15.13
			c18.12,0,33.43,3.74,45.5,11.1c16.37,10,25.39,25.53,25.39,43.74c0,5.16-0.68,10.1-1.93,14.77c10.61-12.98,13.52-37.6,13.52-71.44
			C760.99,225.44,733.44,193.75,693.82,205.72z"/>
		<path class="st1" d="M726.08,391.46c-1.01,1.28-1.98,2.51-3.08,3.91l-1.15,1.37l-6.28,7.06l24.22,32.06
			C741.49,416.97,738.17,400.29,726.08,391.46z"/>
		<path class="st1" d="M690.1,520.13c-20.18-0.54-33.14-8.81-40.46-15.65c-4.37-4.09-8.63-8.73-12.74-13.84l-14.48,20.91
			c15.18,9.41,27.22,16.69,32.96,19.79c21.62,11.64,39.54,3.66,53.54-13.84c-5.73,1.72-11.77,2.65-18.04,2.65L690.1,520.13z"/>
		<path class="st1" d="M287.99,383.68c-19.71,2.07-34.26,7.35-43.66,15.85c-9.4,8.5-14.09,20.67-14.09,36.52
			c0,9.42,1.89,17.69,5.67,24.81c3.78,7.12,9.16,12.98,16.16,17.57c6.99,4.6,15.35,8.04,25.1,10.34c9.74,2.29,20.68,3.44,32.83,3.44
			c27.04,0,48.01-4.48,62.91-13.43c4.58-2.76,8.54-6.03,11.86-9.82c3.32-3.79,4.99-8.67,4.99-14.64v-77.17
			c0-10.79-1.95-20.15-5.85-28.08c-3.9-7.93-9.45-14.47-16.67-19.64c-7.22-5.17-15.93-9.01-26.13-11.54
			c-10.2-2.53-21.49-3.79-33.86-3.79c-8.03,0-16.56,0.58-25.61,1.72c-9.06,1.15-16.91,2.99-23.55,5.51
			c-5.96,2.53-10.37,5.57-13.23,9.13c-2.87,3.56-4.3,8.33-4.3,14.3c0,4.6,1.03,9.02,3.09,13.27c2.06,4.25,4.58,7.4,7.56,9.48
			c6.65-2.76,14.1-5.05,22.35-6.89c8.25-1.84,16.73-2.76,25.44-2.76c11,0,19.42,1.44,25.27,4.31c5.85,2.87,8.77,7.64,8.77,14.3v2.41
			L287.99,383.68z M333.37,417.44V445c-2.29,1.38-5.79,2.47-10.49,3.27c-4.7,0.81-8.99,1.21-12.89,1.21c-8.48,0-14.5-1.43-18.05-4.3
			c-3.56-2.87-5.33-6.6-5.33-11.2c0-4.59,2.06-8.04,6.19-10.34c4.13-2.29,9.4-3.67,15.81-4.13L333.37,417.44z"/>
		<path class="st1" d="M436.85,334.76c-3.67,2.99-6.48,6.37-8.42,10.16c-1.95,3.79-2.92,8.33-2.92,13.61v103.36
			c0,5.74,0.74,10.39,2.23,13.95c1.49,3.56,3.61,6.37,6.36,8.44c2.75,2.07,6.13,3.45,10.14,4.14c4.01,0.69,8.53,1.03,13.58,1.03
			c5.27,0,10.37-0.35,15.3-1.03c4.92-0.69,8.53-1.38,10.83-2.07V368.86c2.98-1.38,6.58-2.58,10.83-3.61
			c4.24-1.04,8.76-2.01,13.58-2.93c4.81-0.91,9.74-1.6,14.78-2.07c5.04-0.46,9.97-0.69,14.79-0.69c1.37-2.52,2.52-5.34,3.44-8.44
			c0.91-3.1,1.37-6.25,1.37-9.48c0-9.65-3.21-16.59-9.62-20.84c-6.42-4.25-15.13-6.37-26.13-6.37c-6.65,0-13.29,0.52-19.94,1.55
			c-6.65,1.03-13.06,2.47-19.25,4.31c-6.19,1.84-11.98,3.96-17.36,6.37C445.04,329.07,440.52,331.77,436.85,334.76z"/>
		<path class="st1" d="M701.22,377.13c3.44-4.36,6.42-8.15,8.94-11.37c2.52-3.21,4.58-6.08,6.19-8.61c1.6-2.53,2.8-5,3.61-7.41
			c0.8-2.41,1.2-5.11,1.2-8.1c0-7.58-3.67-13.61-11-18.09c-7.34-4.48-17.31-6.72-29.91-6.72l-36.79,49.95l-22-28.94
			c-5.04-6.66-9.62-11.83-13.75-15.5c-4.12-3.67-9.97-5.51-17.53-5.51c-8.03,0-14.73,2.75-20.11,8.27
			c-5.39,5.51-9,12.64-10.83,21.36l46.07,54.09l-27.5,32.04c-6.42,7.35-10.95,13.15-13.58,17.4c-2.64,4.26-3.95,9.13-3.95,14.64
			c0,7.12,3.04,13.09,9.11,17.92c6.07,4.82,14.96,7.23,26.64,7.23c0.91,0,2.07-0.06,3.44-0.17c1.38-0.12,2.64-0.17,3.78-0.17
			l35.07-50.65l18.56,26.53c4.81,6.89,9.8,12.75,14.95,17.57c5.16,4.82,12.09,7.35,20.8,7.58c8.02,0,14.9-2.53,20.63-7.58
			c5.73-5.05,9.17-11.94,10.31-20.67l-45.03-59.6L701.22,377.13z"/>
		<path class="st1" d="M746.38,23.5c-15.96,0-28.95,13.01-28.95,29.01c0,16,12.99,29.01,28.95,29.01
			c15.96,0,28.94-13.01,28.94-29.01C775.32,36.51,762.34,23.5,746.38,23.5z M746.38,77.11c-13.54,0-24.55-11.04-24.55-24.61
			c0-13.57,11.02-24.61,24.55-24.61c13.53,0,24.55,11.04,24.55,24.61C770.93,66.07,759.92,77.11,746.38,77.11z"/>
		<path class="st1" d="M753.1,55.45c-0.56-0.51-1.39-1.02-2.47-1.55c2.98-0.41,5.17-1.37,6.6-2.88c1.42-1.51,2.13-3.37,2.13-5.57
			c0-1.71-0.43-3.27-1.29-4.68c-0.86-1.41-2.01-2.4-3.45-2.96c-1.44-0.56-3.54-0.84-6.3-0.84h-13.74v31.07h4.1v-13.8h4.76
			c1.06,0,1.82,0.05,2.28,0.15c0.64,0.16,1.26,0.43,1.87,0.83c0.61,0.39,1.31,1.09,2.08,2.08c0.78,0.99,1.76,2.42,2.96,4.28
			l4.1,6.46h5.16l-5.39-8.45C755.44,57.93,754.3,56.55,753.1,55.45z M747.5,50.68h-8.82V40.41h9.81c2.3,0,3.98,0.48,5.04,1.42
			c1.06,0.95,1.6,2.15,1.6,3.62c0,1-0.27,1.93-0.82,2.79c-0.55,0.86-1.35,1.48-2.41,1.86C750.84,50.49,749.37,50.68,747.5,50.68z"/>
	</g>
</g>
</svg>
